<?xml version="1.0" standalone="no"?>
<!DOCTYPE svg PUBLIC "-//W3C//DTD SVG 20010904//EN"
 "http://www.w3.org/TR/2001/REC-SVG-20010904/DTD/svg10.dtd">
<svg version="1.0" xmlns="http://www.w3.org/2000/svg"
 width="400.000000pt" height="400.000000pt" viewBox="0 0 400.000000 400.000000"
 preserveAspectRatio="xMidYMid meet">
<metadata>
Created by potrace 1.14, written by Peter Selinger 2001-2017
</metadata>
<g transform="translate(0.000000,400.000000) scale(0.100000,-0.100000)"
fill="#000000" stroke="none">
<path d="M1519 3696 c-2 -2 -49 -6 -104 -10 -55 -3 -116 -10 -135 -16 -19 -5
-51 -11 -70 -14 -72 -9 -141 -23 -147 -30 -10 -9 13 -7 103 9 59 12 130 15
253 13 94 -2 171 0 171 4 0 3 8 5 18 3 60 -12 72 -16 68 -24 -8 -13 166 -22
205 -11 41 12 39 12 39 1 0 -5 -12 -11 -27 -13 -38 -5 136 -12 221 -9 38 1 74
5 80 9 6 3 24 5 39 3 34 -3 247 30 247 39 0 9 -123 -1 -136 -11 -6 -5 -18 -7
-25 -5 -8 3 -87 7 -177 10 -89 3 -183 11 -208 17 -34 9 -48 9 -57 0 -8 -8 -4
-11 18 -12 25 -1 21 -3 -20 -15 -60 -16 -85 -18 -85 -4 0 6 12 10 26 10 14 0
22 4 19 10 -4 6 1 7 11 3 12 -4 15 -2 12 8 -5 14 -38 21 -164 33 -60 6 -71 5
-71 -9 0 -8 5 -15 10 -15 6 0 7 -3 4 -6 -9 -9 -38 16 -31 27 5 9 -78 13 -87 5z
m245 -25 c11 -4 15 -10 10 -13 -10 -6 -54 8 -54 17 0 7 21 5 44 -4z m359 -48
c-7 -2 -21 -2 -30 0 -10 3 -4 5 12 5 17 0 24 -2 18 -5z"/>
<path d="M2706 3692 c-3 -6 -3 -12 1 -15 5 -2 1 -2 -7 1 -33 11 -71 9 -136 -4
-37 -8 -70 -16 -72 -19 -4 -4 212 -8 341 -7 26 0 45 -3 42 -8 -6 -9 18 -13
180 -31 179 -20 191 -21 176 -11 -9 7 7 9 48 6 48 -3 61 0 61 11 0 9 9 15 23
15 18 0 19 -2 7 -10 -11 -7 -5 -10 23 -10 21 0 36 3 34 8 -3 4 26 8 64 9 38 1
77 7 86 13 14 8 -6 10 -77 8 -155 -4 -258 3 -383 23 -65 11 -139 20 -165 20
-26 -1 -90 2 -144 5 -58 3 -98 1 -102 -4z m127 -9 c-7 -2 -19 -2 -25 0 -7 3
-2 5 12 5 14 0 19 -2 13 -5z m147 -20 c0 -2 -8 -12 -17 -21 -16 -16 -16 -16
-10 1 3 9 2 17 -4 17 -6 0 -8 4 -4 10 5 9 35 3 35 -7z m-153 1 c-3 -3 -12 -4
-19 -1 -8 3 -5 6 6 6 11 1 17 -2 13 -5z m268 -14 c-3 -5 -17 -10 -31 -10 -13
0 -24 5 -24 10 0 6 14 10 31 10 17 0 28 -4 24 -10z m-158 -6 c-3 -3 -12 -4
-19 -1 -8 3 -5 6 6 6 11 1 17 -2 13 -5z m256 -31 c-7 -2 -19 -2 -25 0 -7 3 -2
5 12 5 14 0 19 -2 13 -5z"/>
<path d="M3830 3686 c0 -12 11 -16 41 -16 52 0 48 24 -4 28 -28 2 -37 -1 -37
-12z"/>
<path d="M95 3684 c-41 -9 -95 -27 -95 -33 0 -3 35 -5 77 -3 71 3 185 -7 286
-24 25 -4 37 -2 37 5 0 7 5 9 10 6 6 -4 7 -11 4 -17 -5 -8 3 -9 24 -5 17 3 32
2 34 -3 2 -5 57 -15 123 -22 117 -11 180 -8 385 18 92 12 60 23 -66 23 -109 0
-303 20 -444 47 -59 11 -229 15 -267 6 -25 -6 -43 -6 -43 -1 0 9 -28 10 -65 3z
m260 -14 c-3 -5 -16 -10 -28 -9 -21 0 -21 1 -2 9 28 12 37 12 30 0z m45 -25
c-32 -18 -40 -18 -40 0 0 10 10 15 33 15 l32 -1 -25 -14z m100 6 c0 -12 -39
-25 -47 -17 -4 3 1 6 10 6 10 0 17 5 17 10 0 6 5 10 10 10 6 0 10 -4 10 -9z
m55 -31 c3 -5 -3 -10 -14 -10 -12 0 -21 5 -21 10 0 6 6 10 14 10 8 0 18 -4 21
-10z m183 -23 c10 -3 6 -5 -10 -6 -22 -1 -25 2 -20 22 5 17 7 18 10 5 2 -9 11
-19 20 -21z m-115 16 c-7 -2 -19 -2 -25 0 -7 3 -2 5 12 5 14 0 19 -2 13 -5z
m44 -9 c-3 -3 -12 -4 -19 -1 -8 3 -5 6 6 6 11 1 17 -2 13 -5z m240 0 c-3 -3
-12 -4 -19 -1 -8 3 -5 6 6 6 11 1 17 -2 13 -5z"/>
<path d="M3600 3650 c0 -13 20 -13 40 0 12 8 9 10 -12 10 -16 0 -28 -4 -28
-10z"/>
<path d="M1014 3293 c-6 -5 -15 -53 -20 -108 l-9 -100 -40 -2 c-22 -2 -93 -10
-159 -19 -75 -10 -121 -12 -125 -6 -3 5 -33 48 -66 96 -59 84 -61 86 -102 86
-23 0 -53 -4 -68 -10 -30 -11 -32 -5 58 -138 27 -40 46 -76 43 -80 -4 -3 -39
-20 -79 -36 -192 -82 -317 -182 -373 -300 -44 -92 -47 -180 -9 -256 14 -27 25
-54 25 -60 0 -5 -20 -10 -45 -10 -31 0 -45 -4 -45 -13 0 -11 21 -14 88 -15
153 -3 225 -17 325 -65 56 -27 71 -39 88 -74 19 -39 19 -44 5 -65 -9 -12 -16
-25 -16 -28 0 -7 64 -29 150 -54 168 -48 488 -60 710 -27 112 17 285 65 333
92 12 6 24 6 37 -1 19 -10 20 -9 14 29 -8 53 8 91 54 128 79 64 175 90 295 80
108 -9 175 -33 220 -78 38 -38 39 -41 33 -90 -7 -54 -30 -93 -85 -145 -57 -54
-71 -64 -99 -75 -25 -10 -26 -11 -8 -21 29 -17 135 42 197 110 l51 56 67 -22
c117 -37 136 -42 252 -62 146 -25 410 -27 566 -4 59 9 110 18 112 20 2 2 3 14
3 28 0 32 50 92 96 115 98 49 288 83 435 78 59 -3 77 0 77 10 0 8 -12 13 -29
13 -17 0 -33 4 -36 10 -3 5 10 33 30 62 l35 53 0 129 c0 127 -1 130 -30 176
-29 45 -82 98 -130 130 -12 8 -32 22 -44 31 -30 23 -109 61 -193 94 -40 16
-73 32 -73 36 0 5 27 52 59 106 33 54 58 100 55 104 -2 3 -31 12 -64 19 -74
16 -84 9 -136 -91 -47 -90 -67 -110 -102 -103 -15 3 -79 11 -142 18 l-115 12
3 107 4 107 -75 0 -75 0 -7 -105 c-9 -122 9 -108 -160 -126 -175 -19 -165 -21
-202 36 -18 28 -40 59 -49 70 -8 11 -23 32 -32 47 -9 15 -22 30 -30 33 -15 5
-102 -13 -115 -25 -7 -6 82 -150 119 -191 8 -8 14 -18 14 -21 0 -3 -37 -20
-82 -38 -102 -41 -158 -71 -223 -121 -81 -61 -113 -93 -124 -122 -13 -32 -37
-35 -47 -5 -9 29 -86 111 -155 164 -53 40 -150 94 -226 124 -18 7 -33 14 -33
16 0 3 15 29 33 60 57 98 87 157 83 161 -2 2 -32 8 -67 13 -78 11 -76 13 -154
-132 -29 -56 -46 -62 -122 -49 -32 5 -87 13 -123 16 -106 10 -99 2 -93 115 l6
100 -44 0 c-24 0 -53 3 -64 5 -11 3 -25 2 -31 -2z m311 -258 c205 -33 403
-121 525 -233 38 -35 70 -70 70 -77 0 -7 3 -15 8 -17 4 -1 18 -23 32 -48 21
-39 25 -60 28 -161 l4 -116 -38 -5 c-126 -18 -259 -115 -266 -194 -3 -37 -5
-40 -63 -63 -147 -58 -387 -101 -567 -101 -123 0 -299 22 -408 51 -121 32
-121 32 -114 79 6 36 3 45 -22 71 -59 62 -160 103 -286 117 l-63 7 -31 53
c-58 96 -54 192 12 304 39 67 74 102 164 161 154 102 353 164 615 191 76 8
301 -3 400 -19z m1980 -35 c239 -43 417 -123 536 -240 87 -86 110 -129 117
-215 6 -80 -15 -142 -71 -215 l-43 -55 -75 -7 c-40 -5 -112 -17 -159 -29 -140
-35 -212 -82 -235 -152 -9 -28 -15 -33 -55 -38 -25 -3 -79 -12 -120 -19 -94
-16 -372 -8 -485 14 -94 17 -222 52 -270 72 -31 13 -34 17 -29 44 7 32 -8 79
-39 122 -28 38 -122 77 -223 91 -85 12 -88 14 -96 42 -11 40 1 193 18 227 37
73 77 120 160 187 13 11 133 72 184 95 91 40 269 80 445 100 83 9 333 -4 440
-24z"/>
<path d="M1028 2779 c-131 -14 -275 -71 -341 -135 -45 -44 -77 -102 -77 -140
0 -77 90 -176 204 -223 127 -53 199 -64 385 -59 148 4 175 8 245 32 130 44
222 108 254 176 76 160 -113 318 -417 349 -114 12 -141 12 -253 0z m-151 -95
c-3 -3 -12 -4 -19 -1 -8 3 -5 6 6 6 11 1 17 -2 13 -5z m-12 -24 c-28 -12 -37
-12 -30 0 3 6 16 10 28 9 21 0 21 -1 2 -9z m-59 -16 c-9 -8 -16 -21 -16 -28 0
-8 -15 -17 -32 -21 l-33 -7 27 -8 c42 -12 49 -20 39 -38 -6 -10 -4 -23 6 -38
9 -15 11 -24 4 -29 -6 -3 -11 -10 -11 -16 0 -18 26 -9 59 21 26 24 36 28 47
19 8 -6 14 -20 14 -29 0 -28 68 -79 127 -96 29 -8 86 -16 127 -16 63 0 77 3
96 22 15 15 30 20 48 17 61 -12 122 37 122 96 0 54 -45 96 -129 122 -34 10
-64 22 -66 25 -7 12 154 21 235 14 98 -9 134 -25 167 -76 36 -54 35 -102 -3
-159 -103 -151 -427 -220 -697 -148 -84 23 -170 75 -146 89 11 7 11 13 0 33
-10 19 -21 24 -44 23 -22 -1 -32 4 -35 16 -3 15 2 17 26 12 34 -7 49 8 27 26
-8 7 -13 16 -10 20 3 4 -4 10 -14 13 -14 3 -21 -2 -25 -20 -4 -13 -11 -21 -16
-18 -5 3 -7 12 -3 20 3 9 -1 15 -8 16 -8 0 3 9 24 18 28 13 34 20 23 24 -9 4
-16 2 -16 -3 0 -6 -4 -10 -10 -10 -5 0 -10 6 -10 13 0 29 26 66 65 90 45 30
64 35 41 11z m284 7 c46 -11 37 -61 -14 -85 -40 -19 -75 -20 -127 -4 -30 9
-39 16 -39 33 0 30 19 44 71 54 52 10 75 11 109 2z"/>
<path d="M2740 2773 c-211 -41 -370 -159 -370 -275 0 -104 143 -216 335 -263
104 -26 343 -24 450 4 155 40 277 121 304 200 36 108 -19 199 -159 268 -118
58 -159 66 -355 69 -99 1 -191 0 -205 -3z m547 -121 c58 -13 89 -35 113 -82
25 -50 25 -83 0 -135 -68 -140 -346 -223 -614 -185 -123 18 -212 56 -222 95
-6 25 14 85 29 85 4 0 12 11 17 25 14 37 46 32 69 -13 6 -12 35 -34 64 -49 44
-23 68 -28 154 -31 95 -4 102 -3 112 17 10 17 21 21 64 21 68 1 106 30 114 86
8 61 -34 97 -159 138 l-73 24 55 2 c30 1 75 5 100 10 50 9 114 7 177 -8z
m-399 -37 c3 -27 -2 -33 -33 -48 -41 -20 -88 -22 -134 -6 -33 12 -39 32 -18
60 18 24 36 28 112 26 l70 -2 3 -30z"/>
<path d="M100 2230 c0 -5 14 -10 30 -10 17 0 30 5 30 10 0 6 -13 10 -30 10
-16 0 -30 -4 -30 -10z"/>
<path d="M3746 2142 c-7 -11 16 -22 46 -22 11 0 18 5 16 13 -5 15 -54 22 -62
9z"/>
<path d="M0 2062 c1 -34 4 -39 48 -59 125 -60 173 -79 391 -154 160 -55 308
-94 506 -133 72 -15 141 -29 154 -32 l23 -5 -3 -147 -4 -147 140 -8 c77 -4
232 -6 345 -5 l205 3 6 118 c3 64 9 120 13 125 10 9 163 9 173 -1 4 -5 7 -60
6 -122 -1 -63 1 -116 5 -119 6 -4 627 -10 681 -7 11 1 13 28 10 148 l-4 147
194 28 c330 47 725 141 876 208 11 5 52 21 90 36 39 15 76 31 82 36 7 6 24 7
38 4 22 -6 25 -3 25 19 l0 25 -104 0 c-57 0 -111 -3 -120 -6 -29 -11 -6 -24
42 -24 54 -1 46 -9 -42 -42 -108 -41 -191 -67 -361 -113 -157 -42 -502 -99
-755 -125 -897 -90 -1581 -30 -2275 202 -66 22 -133 46 -150 53 -16 7 -57 26
-90 40 -81 36 -95 48 -64 55 23 6 23 7 4 17 -11 5 -35 13 -52 16 -32 6 -33 6
-33 -31z m1342 -406 c73 -8 195 -18 270 -22 l136 -7 7 -81 c12 -140 21 -130
-125 -134 -69 -2 -203 0 -299 3 l-173 7 7 117 c4 64 9 119 12 124 6 9 10 9
165 -7z m1293 -18 c2 -13 6 -70 7 -128 l3 -105 -280 -3 c-215 -2 -285 1 -297
10 -14 11 -16 27 -10 113 l7 100 145 8 c80 4 192 11 250 16 172 14 169 14 175
-11z"/>
<path d="M3940 2070 c-19 -11 -11 -18 28 -26 28 -6 32 -4 32 15 0 23 -32 29
-60 11z"/>
<path d="M2800 1211 c-47 -28 -193 -54 -330 -58 -135 -5 -172 -2 -325 26 -87
16 -145 21 -145 12 0 -4 27 -11 59 -14 33 -4 116 -18 186 -33 108 -22 145 -25
253 -21 70 2 136 6 147 9 11 4 34 9 50 14 44 10 135 55 135 65 0 11 -11 11
-30 0z"/>
<path d="M965 1185 c75 -47 145 -66 275 -77 101 -8 143 -7 220 5 95 15 351 68
359 74 20 15 -57 6 -229 -27 -181 -36 -389 -29 -574 19 -21 5 -43 14 -49 20
-6 6 -18 11 -26 11 -9 0 2 -12 24 -25z"/>
<path d="M1848 1193 c6 -2 18 -2 25 0 6 3 1 5 -13 5 -14 0 -19 -2 -12 -5z"/>
<path d="M1928 1193 c7 -3 16 -2 19 1 4 3 -2 6 -13 5 -11 0 -14 -3 -6 -6z"/>
<path d="M18 673 c-10 -3 -18 -11 -18 -20 0 -12 20 -14 134 -11 74 2 129 0
123 -4 -7 -4 11 -8 38 -8 28 0 67 -5 87 -10 36 -10 65 -14 208 -26 36 -3 101
-18 145 -34 44 -16 127 -41 185 -55 58 -15 202 -54 321 -87 l215 -60 140 79
139 80 45 -38 c25 -20 60 -44 78 -53 17 -9 32 -20 32 -24 -1 -4 -21 -29 -47
-57 l-46 -50 -801 -1 c-1043 -2 -996 -1 -996 -19 0 -13 89 -15 739 -15 406 0
753 -3 771 -6 93 -19 -52 -23 -645 -17 -357 3 -698 3 -757 -1 l-108 -8 0 -109
0 -109 783 -1 c924 -2 1317 -2 2405 0 l812 1 0 113 0 113 -747 2 c-864 1 -763
-1 -763 12 0 7 258 10 755 10 748 0 755 0 755 20 0 20 -7 20 -897 20 l-898 0
-22 35 c-30 45 -29 53 5 61 81 18 132 36 176 64 l49 32 104 -51 c57 -28 112
-51 121 -51 9 0 69 16 132 36 63 20 179 56 258 79 144 43 198 68 187 85 -4 6
-2 10 4 10 5 0 13 -5 16 -10 9 -15 35 -12 35 5 0 9 6 12 17 8 11 -4 12 -8 5
-11 -27 -9 -9 -21 31 -20 24 0 62 -3 86 -7 24 -4 41 -3 38 1 -3 5 52 10 122
12 69 2 142 7 161 12 21 4 -32 6 -130 5 -91 -2 -169 0 -175 3 -5 4 -21 8 -35
9 -14 2 -58 8 -98 13 -40 6 -88 10 -105 9 -31 -1 -31 -1 -7 -9 l25 -8 -27 -1
c-14 -1 -28 5 -30 11 -3 8 -19 12 -42 10 -26 -3 -36 0 -32 7 11 17 -209 18
-324 1 -36 -5 -87 -12 -115 -15 -77 -7 -139 -16 -144 -21 -8 -7 93 -4 169 7
168 23 266 19 430 -16 l55 -11 -210 -68 c-115 -37 -220 -71 -233 -77 -13 -5
-34 -9 -49 -9 -27 0 -250 108 -292 142 l-26 21 34 -7 c40 -7 111 3 111 16 0 6
-14 8 -33 4 -62 -12 -312 -6 -407 9 -52 8 -114 15 -138 15 -24 0 -52 5 -63 11
-29 15 -418 25 -457 11 -17 -6 -32 -7 -34 -2 -2 5 -31 5 -68 -1 -36 -6 -101
-14 -145 -18 -44 -5 -87 -12 -96 -15 -10 -4 -20 -2 -24 4 -10 17 -237 3 -251
-16 -16 -20 -45 -18 -37 2 5 14 2 16 -20 10 -14 -3 -29 -2 -32 4 -3 5 -44 10
-91 10 -46 0 -84 4 -84 9 0 14 -436 45 -482 34z m1733 -60 c28 -14 29 -16 12
-28 -18 -12 -241 -135 -296 -163 -30 -15 -78 -5 -372 78 -38 11 -107 29 -153
41 -46 11 -94 26 -107 33 -21 11 -13 13 68 14 51 1 103 4 117 7 14 3 62 8 108
12 45 3 85 10 88 15 3 5 118 8 255 7 201 -1 255 -4 280 -16z m94 -3 c3 -5 1
-10 -4 -10 -6 0 -11 5 -11 10 0 6 2 10 4 10 3 0 8 -4 11 -10z m1268 3 c-7 -2
-19 -2 -25 0 -7 3 -2 5 12 5 14 0 19 -2 13 -5z m-2226 -9 c-3 -3 -12 -4 -19
-1 -8 3 -5 6 6 6 11 1 17 -2 13 -5z m733 -360 c0 -2 -7 -4 -15 -4 -8 0 -15 4
-15 10 0 5 7 7 15 4 8 -4 15 -8 15 -10z"/>
<path d="M3840 619 c-80 -13 -85 -20 -11 -15 35 2 68 9 74 15 12 12 14 12 -63
0z"/>
<path d="M3920 620 c0 -5 18 -10 40 -10 22 0 40 5 40 10 0 6 -18 10 -40 10
-22 0 -40 -4 -40 -10z"/>
</g>
</svg>
